<?xml version="1.0" standalone="no"?>
<!DOCTYPE svg PUBLIC "-//W3C//DTD SVG 20010904//EN"
 "http://www.w3.org/TR/2001/REC-SVG-20010904/DTD/svg10.dtd">
<svg version="1.0" xmlns="http://www.w3.org/2000/svg"
 width="2277.000000pt" height="2277.000000pt" viewBox="0 0 2277.000000 2277.000000"
 preserveAspectRatio="xMidYMid meet">

<g transform="translate(0.000000,2277.000000) scale(0.100000,-0.100000)"
fill="#000000" stroke="none">
<path d="M1380 18975 l0 -2415 2415 0 2415 0 0 2415 0 2415 -2415 0 -2415 0 0
-2415z m4105 0 l0 -1690 -1690 0 -1690 0 -3 1680 c-1 924 0 1686 3 1693 3 10
347 12 1692 10 l1688 -3 0 -1690z"/>
<path d="M2760 18975 l0 -1035 1035 0 1035 0 0 1035 0 1035 -1035 0 -1035 0 0
-1035z"/>
<path d="M6900 20700 l0 -690 345 0 345 0 0 690 0 690 -345 0 -345 0 0 -690z"/>
<path d="M8280 21045 l0 -345 690 0 690 0 0 -345 0 -345 345 0 345 0 0 -345 0
-345 -690 0 -690 0 0 -345 0 -345 -345 0 -345 0 0 345 0 345 -690 0 -690 0 0
-345 0 -345 345 0 345 0 0 -690 0 -690 -345 0 -345 0 0 -690 0 -690 -1035 0
-1035 0 0 -345 0 -345 -345 0 -345 0 0 345 0 345 -690 0 -690 0 0 -345 0 -345
-345 0 -345 0 0 345 0 345 -345 0 -345 0 0 -690 0 -690 345 0 345 0 0 -345 0
-345 -345 0 -345 0 0 -345 0 -345 690 0 690 0 0 -345 0 -345 -690 0 -690 0 0
-345 0 -345 1725 0 1725 0 0 -345 0 -345 1035 0 1035 0 0 -690 0 -690 -345 0
-345 0 0 345 0 345 -690 0 -690 0 0 -345 0 -345 690 0 690 0 0 -345 0 -345
-345 0 -345 0 0 -345 0 -345 345 0 345 0 0 345 0 345 345 0 345 0 0 -690 0
-690 345 0 345 0 0 -345 0 -345 -345 0 -345 0 0 -1035 0 -1035 345 0 345 0 0
-345 0 -345 -345 0 -345 0 0 -690 0 -690 345 0 345 0 0 345 0 345 690 0 690 0
0 345 0 345 345 0 345 0 0 -690 0 -690 345 0 345 0 0 -345 0 -345 -690 0 -690
0 0 345 0 345 -345 0 -345 0 0 -345 0 -345 -690 0 -690 0 0 -345 0 -345 690 0
690 0 0 345 0 345 345 0 345 0 0 -345 0 -345 1035 0 1035 0 0 345 0 345 345 0
345 0 0 690 0 690 690 0 690 0 0 -345 0 -345 -345 0 -345 0 0 -345 0 -345 345
0 345 0 0 345 0 345 345 0 345 0 0 -690 0 -690 345 0 345 0 0 1035 0 1035
-690 0 -690 0 0 345 0 345 345 0 345 0 0 345 0 345 345 0 345 0 0 345 0 345
345 0 345 0 0 -690 0 -690 345 0 345 0 0 -345 0 -345 -345 0 -345 0 0 -1035 0
-1035 1035 0 1035 0 0 345 0 345 345 0 345 0 0 -345 0 -345 345 0 345 0 0 345
0 345 345 0 345 0 0 345 0 345 345 0 345 0 0 -690 0 -690 345 0 345 0 0 690 0
690 345 0 345 0 0 1035 0 1035 -1035 0 -1035 0 0 690 0 690 345 0 345 0 0
-345 0 -345 345 0 345 0 0 345 0 345 345 0 345 0 0 345 0 345 -690 0 -690 0 0
1035 0 1035 345 0 345 0 0 1035 0 1035 345 0 345 0 0 690 0 690 -690 0 -690 0
0 345 0 345 -690 0 -690 0 0 1035 0 1035 345 0 345 0 0 345 0 345 -345 0 -345
0 0 -345 0 -345 -690 0 -690 0 0 345 0 345 -345 0 -345 0 0 -690 0 -690 -345
0 -345 0 0 -345 0 -345 -690 0 -690 0 0 345 0 345 345 0 345 0 0 345 0 345
-345 0 -345 0 0 345 0 345 345 0 345 0 0 345 0 345 345 0 345 0 0 690 0 690
-345 0 -345 0 0 690 0 690 345 0 345 0 0 345 0 345 -690 0 -690 0 0 345 0 345
690 0 690 0 0 345 0 345 -690 0 -690 0 0 -345 0 -345 -690 0 -690 0 0 345 0
345 -345 0 -345 0 0 -690 0 -690 -690 0 -690 0 0 345 0 345 345 0 345 0 0 345
0 345 -345 0 -345 0 0 -345 0 -345 -690 0 -690 0 0 345 0 345 -690 0 -690 0 0
-345z m5520 -1380 l0 -345 345 0 345 0 0 -690 0 -690 -345 0 -345 0 0 -690 0
-690 345 0 345 0 0 345 0 345 345 0 345 0 0 -345 0 -345 -345 0 -345 0 0 -345
0 -345 -345 0 -345 0 0 345 0 345 -345 0 -345 0 0 1035 0 1035 -690 0 -690 0
0 345 0 345 345 0 345 0 0 345 0 345 690 0 690 0 0 -345z m-2760 -3105 l0
-1380 345 0 345 0 0 1380 0 1380 345 0 345 0 0 -2070 0 -2070 1035 0 1035 0 0
-1725 0 -1725 -345 0 -345 0 0 -345 0 -345 690 0 690 0 0 -690 0 -690 -345 0
-345 0 0 -345 0 -345 -345 0 -345 0 0 345 0 345 -345 0 -345 0 0 -345 0 -345
-345 0 -345 0 0 -1035 0 -1035 690 0 690 0 0 345 0 345 345 0 345 0 0 345 0
345 345 0 345 0 0 -345 0 -345 -345 0 -345 0 0 -345 0 -345 -345 0 -345 0 0
-345 0 -345 -1035 0 -1035 0 0 -345 0 -345 -1035 0 -1035 0 0 345 0 345 -1035
0 -1035 0 0 345 0 345 345 0 345 0 0 345 0 345 345 0 345 0 0 345 0 345 -345
0 -345 0 0 1035 0 1035 -690 0 -690 0 0 345 0 345 345 0 345 0 0 345 0 345
345 0 345 0 0 345 0 345 -345 0 -345 0 0 345 0 345 -345 0 -345 0 0 690 0 690
-1035 0 -1035 0 0 690 0 690 345 0 345 0 0 345 0 345 690 0 690 0 0 345 0 345
345 0 345 0 0 690 0 690 345 0 345 0 0 345 0 345 1380 0 1380 0 0 -1380z
m-7590 -2415 l0 -1035 345 0 345 0 0 -345 0 -345 -345 0 -345 0 0 345 0 345
-345 0 -345 0 0 1035 0 1035 345 0 345 0 0 -1035z m11040 690 l0 -345 -690 0
-690 0 0 345 0 345 690 0 690 0 0 -345z m3450 -690 l0 -345 -345 0 -345 0 0
-345 0 -345 690 0 690 0 0 -345 0 -345 345 0 345 0 0 -690 0 -690 345 0 345 0
0 -690 0 -690 -345 0 -345 0 0 345 0 345 -345 0 -345 0 0 345 0 345 -1035 0
-1035 0 0 -345 0 -345 690 0 690 0 0 -345 0 -345 345 0 345 0 0 -345 0 -345
345 0 345 0 0 -690 0 -690 -690 0 -690 0 0 345 0 345 345 0 345 0 0 345 0 345
-345 0 -345 0 0 345 0 345 -345 0 -345 0 0 -690 0 -690 -345 0 -345 0 0 -345
0 -345 -345 0 -345 0 0 345 0 345 345 0 345 0 0 1035 0 1035 -345 0 -345 0 0
345 0 345 345 0 345 0 0 345 0 345 -690 0 -690 0 0 690 0 690 690 0 690 0 0
690 0 690 690 0 690 0 0 -345z m-11730 -2070 l0 -345 -345 0 -345 0 0 345 0
345 345 0 345 0 0 -345z m11730 -6210 l0 -1035 -1035 0 -1035 0 0 1035 0 1035
1035 0 1035 0 0 -1035z m1380 -1380 l0 -345 690 0 690 0 0 -690 0 -690 -345 0
-345 0 0 345 0 345 -345 0 -345 0 0 -345 0 -345 -690 0 -690 0 0 345 0 345
690 0 690 0 0 345 0 345 -345 0 -345 0 0 345 0 345 345 0 345 0 0 -345z
m-2070 -1035 l0 -690 -690 0 -690 0 0 345 0 345 345 0 345 0 0 345 0 345 345
0 345 0 0 -690z"/>
<path d="M13110 18975 l0 -345 345 0 345 0 0 345 0 345 -345 0 -345 0 0 -345z"/>
<path d="M8280 16560 l0 -690 -345 0 -345 0 0 -345 0 -345 -345 0 -345 0 0
-345 0 -345 345 0 345 0 0 345 0 345 345 0 345 0 0 345 0 345 345 0 345 0 0
-690 0 -690 -345 0 -345 0 0 -690 0 -690 690 0 690 0 0 345 0 345 -345 0 -345
0 0 345 0 345 345 0 345 0 0 690 0 690 345 0 345 0 0 690 0 690 -345 0 -345 0
0 -345 0 -345 -345 0 -345 0 0 345 0 345 -345 0 -345 0 0 -690z"/>
<path d="M10350 14835 l0 -345 345 0 345 0 0 345 0 345 -345 0 -345 0 0 -345z"/>
<path d="M5520 14145 l0 -345 345 0 345 0 0 345 0 345 -345 0 -345 0 0 -345z"/>
<path d="M10350 13110 l0 -690 -345 0 -345 0 0 -345 0 -345 690 0 690 0 0
-690 0 -690 -345 0 -345 0 0 345 0 345 -345 0 -345 0 0 -690 0 -690 -345 0
-345 0 0 345 0 345 -345 0 -345 0 0 -345 0 -345 345 0 345 0 0 -345 0 -345
345 0 345 0 0 345 0 345 345 0 345 0 0 -345 0 -345 345 0 345 0 0 690 0 690
345 0 345 0 0 -1035 0 -1035 690 0 690 0 0 345 0 345 345 0 345 0 0 345 0 345
-345 0 -345 0 0 -345 0 -345 -345 0 -345 0 0 690 0 690 345 0 345 0 0 690 0
690 -345 0 -345 0 0 345 0 345 -345 0 -345 0 0 345 0 345 345 0 345 0 0 345 0
345 -345 0 -345 0 0 -345 0 -345 -345 0 -345 0 0 345 0 345 -345 0 -345 0 0
-690z m2070 -1725 l0 -345 -345 0 -345 0 0 345 0 345 345 0 345 0 0 -345z"/>
<path d="M13110 12765 l0 -345 345 0 345 0 0 345 0 345 -345 0 -345 0 0 -345z"/>
<path d="M7590 12075 l0 -345 345 0 345 0 0 -345 0 -345 345 0 345 0 0 345 0
345 -345 0 -345 0 0 345 0 345 -345 0 -345 0 0 -345z"/>
<path d="M8970 7590 l0 -690 690 0 690 0 0 345 0 345 -345 0 -345 0 0 345 0
345 -345 0 -345 0 0 -690z"/>
<path d="M11040 7245 l0 -345 345 0 345 0 0 345 0 345 -345 0 -345 0 0 -345z"/>
<path d="M8970 5865 l0 -345 690 0 690 0 0 -345 0 -345 345 0 345 0 0 345 0
345 -345 0 -345 0 0 345 0 345 -690 0 -690 0 0 -345z"/>
<path d="M16560 12075 l0 -345 345 0 345 0 0 345 0 345 -345 0 -345 0 0 -345z"/>
<path d="M16560 5865 l0 -345 345 0 345 0 0 345 0 345 -345 0 -345 0 0 -345z"/>
<path d="M16560 18975 l0 -2415 2415 0 2415 0 0 2415 0 2415 -2415 0 -2415 0
0 -2415z m4105 0 l0 -1690 -1690 0 -1690 0 -3 1680 c-1 924 0 1686 3 1693 3
10 347 12 1692 10 l1688 -3 0 -1690z"/>
<path d="M17940 18975 l0 -1035 1035 0 1035 0 0 1035 0 1035 -1035 0 -1035 0
0 -1035z"/>
<path d="M20010 15525 l0 -345 345 0 345 0 0 -345 0 -345 -690 0 -690 0 0
-345 0 -345 690 0 690 0 0 -345 0 -345 345 0 345 0 0 345 0 345 -345 0 -345 0
0 345 0 345 345 0 345 0 0 690 0 690 -690 0 -690 0 0 -345z"/>
<path d="M1380 10350 l0 -690 345 0 345 0 0 345 0 345 345 0 345 0 0 345 0
345 -690 0 -690 0 0 -690z"/>
<path d="M2760 9315 l0 -345 345 0 345 0 0 -345 0 -345 -345 0 -345 0 0 -345
0 -345 -345 0 -345 0 0 -345 0 -345 345 0 345 0 0 345 0 345 345 0 345 0 0
-345 0 -345 1380 0 1380 0 0 345 0 345 -690 0 -690 0 0 690 0 690 -690 0 -690
0 0 345 0 345 -345 0 -345 0 0 -345z m1380 -1380 l0 -345 -345 0 -345 0 0 345
0 345 345 0 345 0 0 -345z"/>
<path d="M1380 8625 l0 -345 345 0 345 0 0 345 0 345 -345 0 -345 0 0 -345z"/>
<path d="M1380 3795 l0 -2415 2415 0 2415 0 0 2415 0 2415 -2415 0 -2415 0 0
-2415z m4105 0 l0 -1690 -1690 0 -1690 0 -3 1680 c-1 924 0 1686 3 1693 3 10
347 12 1692 10 l1688 -3 0 -1690z"/>
<path d="M2760 3795 l0 -1035 1035 0 1035 0 0 1035 0 1035 -1035 0 -1035 0 0
-1035z"/>
</g>
</svg>
